<svg xmlns="http://www.w3.org/2000/svg" version="1.1" xmlns:xlink="http://www.w3.org/1999/xlink" xmlns:svgjs="http://svgjs.com/svgjs" width="53" height="52"><svg viewBox="0 0 53 52" fill="none" xmlns="http://www.w3.org/2000/svg">
<path d="M26.4995 51.9989C40.8599 51.9989 52.5014 40.3586 52.5014 25.9995C52.5014 11.6404 40.8599 0 26.4995 0C12.139 0 0.497559 11.6404 0.497559 25.9995C0.497559 40.3586 12.139 51.9989 26.4995 51.9989Z" fill="#68E1FD"></path>
<path d="M26.4994 2.11987C13.3093 2.11987 2.61646 12.8117 2.61646 25.9995C2.61646 39.1872 13.3093 49.8801 26.4994 49.8801C39.6896 49.8801 50.3824 39.1883 50.3824 25.9995C50.3824 12.8106 39.6907 2.11987 26.4994 2.11987ZM23.9064 47.7874C11.8731 46.3557 3.27855 35.44 4.71045 23.4078C6.14235 11.3756 17.058 2.78084 29.0925 4.21257C41.1269 5.6443 49.7203 16.56 48.2884 28.5911C46.8565 40.6222 35.9409 49.2192 23.9064 47.7874Z" fill="url(#paint0_linear)"></path>
<path d="M48.2883 28.5911C46.8564 40.6255 35.9407 49.2192 23.9063 47.7874C11.8719 46.3557 3.27854 35.44 4.71044 23.4078C6.14234 11.3756 17.0579 2.78085 29.0924 4.21258C41.1268 5.64431 49.7202 16.56 48.2883 28.5911Z" fill="#68E1FD"></path>
<path d="M48.2883 28.5911C46.8564 40.6255 35.9407 49.2192 23.9063 47.7874C11.8719 46.3557 3.27854 35.44 4.71044 23.4078C6.14234 11.3756 17.0579 2.78085 29.0924 4.21258C41.1268 5.64431 49.7202 16.56 48.2883 28.5911Z" fill="url(#paint1_linear)"></path>
<path d="M38.5338 7.6468C37.5161 7.37482 36.4802 7.17609 35.4341 7.05214C23.3997 5.62041 12.484 14.2141 11.0521 26.2473C10.569 30.3004 11.226 34.4079 12.9494 38.108C14.6728 41.8082 17.3942 44.9543 20.8078 47.1928C10.4357 44.4217 3.40465 34.379 4.71045 23.4078C6.14235 11.3745 17.0579 2.78087 29.0924 4.2126C32.4635 4.60889 35.6959 5.78467 38.5338 7.6468Z" fill="url(#paint2_linear)"></path>
<path opacity="0.31" d="M30.1797 21.4271L30.2982 22.7816C30.3254 23.1204 30.4623 23.4411 30.6881 23.6951C30.9139 23.9492 31.2163 24.1227 31.5496 24.1894C31.5855 24.1968 31.6218 24.2019 31.6583 24.2046C32.0541 24.2351 32.7271 24.5667 32.7271 24.5667L31.168 25.0515L30.3548 24.8069L30.0145 24.895L30.0514 22.8642L30.1797 21.4271Z" fill="url(#paint3_linear)"></path>
<path d="M26.4995 27.4073C27.2771 27.4073 27.9075 26.777 27.9075 25.9995C27.9075 25.222 27.2771 24.5917 26.4995 24.5917C25.722 24.5917 25.0916 25.222 25.0916 25.9995C25.0916 26.777 25.722 27.4073 26.4995 27.4073Z" fill="#68E1FD"></path>
<path d="M26.4995 27.4073C27.2771 27.4073 27.9075 26.777 27.9075 25.9995C27.9075 25.222 27.2771 24.5917 26.4995 24.5917C25.722 24.5917 25.0916 25.222 25.0916 25.9995C25.0916 26.777 25.722 27.4073 26.4995 27.4073Z" fill="url(#paint4_linear)"></path>
<path d="M26.4538 8.82849C26.5896 8.82849 26.7199 8.88244 26.8159 8.97846C26.912 9.07449 26.9659 9.20472 26.9659 9.34052V26.393H25.9385V9.34052C25.9385 9.20472 25.9924 9.07449 26.0885 8.97846C26.1845 8.88244 26.3147 8.82849 26.4506 8.82849H26.4538Z" fill="#25233A"></path>
<path d="M37.9706 25.4788H26.3993C26.1465 25.4788 25.9417 25.6834 25.9417 25.9359C25.9417 26.1884 26.1465 26.393 26.3993 26.393H37.9706C38.2234 26.393 38.4283 26.1884 38.4283 25.9359C38.4283 25.6834 38.2234 25.4788 37.9706 25.4788Z" fill="#25233A"></path>
<path d="M32.2531 21.1944L32.2901 21.1727L32.6369 21.239L32.6619 21.2738L32.2531 21.1944Z" fill="#68E1FD"></path>
<path d="M32.2531 21.1944L32.2901 21.1727L32.6369 21.239L32.6619 21.2738L32.2531 21.1944Z" fill="url(#paint5_linear)"></path>
<path d="M26.9659 45.9382C26.9659 45.6555 26.7366 45.4262 26.4538 45.4262C26.171 45.4262 25.9417 45.6555 25.9417 45.9382V46.659C25.9417 46.9418 26.171 47.171 26.4538 47.171C26.7366 47.171 26.9659 46.9418 26.9659 46.659V45.9382Z" fill="white"></path>
<path d="M26.9659 5.49317C26.9659 5.21038 26.7366 4.98114 26.4538 4.98114C26.171 4.98114 25.9417 5.21038 25.9417 5.49317V6.21393C25.9417 6.49672 26.171 6.72596 26.4538 6.72596C26.7366 6.72596 26.9659 6.49672 26.9659 6.21393V5.49317Z" fill="white"></path>
<path d="M26.9659 45.9382C26.9659 45.6555 26.7366 45.4262 26.4538 45.4262C26.171 45.4262 25.9417 45.6555 25.9417 45.9382V46.659C25.9417 46.9418 26.171 47.171 26.4538 47.171C26.7366 47.171 26.9659 46.9418 26.9659 46.659V45.9382Z" fill="white"></path>
<path d="M12.2602 11.1604C12.0602 10.9604 11.736 10.9604 11.536 11.1604C11.336 11.3604 11.336 11.6846 11.536 11.8845L12.0457 12.3942C12.2457 12.5941 12.5699 12.5941 12.7699 12.3942C12.9699 12.1942 12.9699 11.87 12.7699 11.6701L12.2602 11.1604Z" fill="white"></path>
<path d="M40.8624 39.7592C40.6624 39.5592 40.3382 39.5592 40.1382 39.7592C39.9382 39.9591 39.9382 40.2833 40.1382 40.4833L40.6479 40.9929C40.8479 41.1929 41.1721 41.1929 41.3721 40.9929C41.5721 40.793 41.5721 40.4688 41.3721 40.2688L40.8624 39.7592Z" fill="white"></path>
<path d="M5.86842 25.5646C5.58562 25.5646 5.35632 25.7939 5.35632 26.0767C5.35632 26.3594 5.58562 26.5887 5.86842 26.5887H6.58922C6.87202 26.5887 7.10132 26.3594 7.10132 26.0767C7.10132 25.7939 6.87202 25.5646 6.58922 25.5646H5.86842Z" fill="white"></path>
<path d="M46.3173 25.5635C46.0344 25.5635 45.8052 25.7928 45.8052 26.0756C45.8052 26.3583 46.0344 26.5876 46.3173 26.5876H47.0381C47.3209 26.5876 47.5502 26.3583 47.5502 26.0756C47.5502 25.7928 47.3209 25.5635 47.0381 25.5635H46.3173Z" fill="white"></path>
<path d="M11.536 40.2691C11.336 40.4691 11.336 40.7933 11.536 40.9932C11.736 41.1932 12.0602 41.1932 12.2602 40.9932L12.7699 40.4836C12.9698 40.2836 12.9698 39.9594 12.7699 39.7595C12.5699 39.5595 12.2457 39.5595 12.0457 39.7595L11.536 40.2691Z" fill="white"></path>
<path d="M40.1378 11.6693C39.9378 11.8692 39.9378 12.1934 40.1378 12.3934C40.3378 12.5933 40.662 12.5933 40.862 12.3934L41.3717 11.8837C41.5717 11.6838 41.5717 11.3596 41.3717 11.1596C41.1717 10.9596 40.8475 10.9596 40.6475 11.1596L40.1378 11.6693Z" fill="white"></path>
<defs>
<linearGradient id="SvgjsLinearGradient1005" x1="17.008" y1="-31.7427" x2="32.2502" y2="61.0029" gradientUnits="userSpaceOnUse">
<stop stop-opacity="0"></stop>
<stop offset="0.88" stop-opacity="0.8"></stop>
<stop offset="0.97"></stop>
</linearGradient>
<linearGradient id="SvgjsLinearGradient1004" x1="11971.1" y1="-10730.6" x2="9895.38" y2="45122" gradientUnits="userSpaceOnUse">
<stop stop-opacity="0"></stop>
<stop offset="0.88" stop-opacity="0.8"></stop>
<stop offset="0.97"></stop>
</linearGradient>
<linearGradient id="SvgjsLinearGradient1003" x1="-4.1656" y1="9.621" x2="114.112" y2="72.8069" gradientUnits="userSpaceOnUse">
<stop stop-color="white" stop-opacity="0"></stop>
<stop offset="0.84" stop-color="white" stop-opacity="0.84"></stop>
<stop offset="0.97" stop-color="white"></stop>
</linearGradient>
<linearGradient id="SvgjsLinearGradient1002" x1="848.953" y1="589.269" x2="830.28" y2="965.696" gradientUnits="userSpaceOnUse">
<stop stop-opacity="0"></stop>
<stop offset="0.88" stop-opacity="0.8"></stop>
<stop offset="0.97"></stop>
</linearGradient>
<linearGradient id="SvgjsLinearGradient1001" x1="697.106" y1="549.199" x2="699.471" y2="791.793" gradientUnits="userSpaceOnUse">
<stop stop-opacity="0"></stop>
<stop offset="0.88" stop-opacity="0.8"></stop>
<stop offset="0.97"></stop>
</linearGradient>
<linearGradient id="SvgjsLinearGradient1000" x1="152.467" y1="40.7749" x2="152.463" y2="41.0105" gradientUnits="userSpaceOnUse">
<stop stop-color="white" stop-opacity="0"></stop>
<stop offset="0.84" stop-color="white" stop-opacity="0.84"></stop>
<stop offset="0.97" stop-color="white"></stop>
</linearGradient>
</defs>
</svg><style>@media (prefers-color-scheme: light) { :root { filter: none; } }
</style></svg>